<?xml version="1.0" encoding="UTF-8" ?>
<svg version="1.1" width="64" height="64" xmlns="http://www.w3.org/2000/svg" shape-rendering="crispEdges">
<rect x="4" y="6" width="56" height="2" fill="#2F3147" />
<rect x="3" y="7" width="1" height="53" fill="#2F3147" />
<rect x="60" y="7" width="1" height="53" fill="#2F3147" />
<rect x="2" y="8" width="1" height="51" fill="#2F3147" />
<rect x="4" y="8" width="1" height="1" fill="#2F3147" />
<rect x="5" y="8" width="54" height="2" fill="#1E1F34" />
<rect x="59" y="8" width="1" height="1" fill="#2F3147" />
<rect x="61" y="8" width="1" height="51" fill="#2F3147" />
<rect x="4" y="9" width="1" height="49" fill="#1E1F34" />
<rect x="59" y="9" width="1" height="49" fill="#1E1F34" />
<rect x="5" y="10" width="36" height="1" fill="#1E1F34" />
<rect x="41" y="10" width="1" height="1" fill="#444C27" />
<rect x="42" y="10" width="1" height="1" fill="#798D16" />
<rect x="43" y="10" width="1" height="1" fill="#9BB50B" />
<rect x="44" y="10" width="1" height="1" fill="#ACCA05" />
<rect x="45" y="10" width="1" height="1" fill="#B8D901" />
<rect x="46" y="10" width="1" height="1" fill="#ACC905" />
<rect x="47" y="10" width="1" height="1" fill="#99B40B" />
<rect x="48" y="10" width="1" height="1" fill="#809613" />
<rect x="49" y="10" width="1" height="1" fill="#5E6C1F" />
<rect x="50" y="10" width="1" height="1" fill="#30342E" />
<rect x="51" y="10" width="8" height="1" fill="#1E1F34" />
<rect x="5" y="11" width="34" height="1" fill="#1E1F34" />
<rect x="39" y="11" width="1" height="1" fill="#5D6B1F" />
<rect x="40" y="11" width="1" height="1" fill="#A7C407" />
<rect x="41" y="11" width="9" height="1" fill="#BBDC00" />
<rect x="50" y="11" width="1" height="1" fill="#B9D901" />
<rect x="51" y="11" width="1" height="1" fill="#819613" />
<rect x="52" y="11" width="1" height="1" fill="#31362E" />
<rect x="53" y="11" width="6" height="1" fill="#1E1F34" />
<rect x="5" y="12" width="32" height="1" fill="#1E1F34" />
<rect x="37" y="12" width="1" height="1" fill="#2B2F30" />
<rect x="38" y="12" width="1" height="1" fill="#9DB80A" />
<rect x="39" y="12" width="2" height="1" fill="#BBDC00" />
<rect x="41" y="12" width="1" height="1" fill="#B9DA00" />
<rect x="42" y="12" width="1" height="1" fill="#A0BC09" />
<rect x="43" y="12" width="1" height="1" fill="#829813" />
<rect x="44" y="12" width="1" height="1" fill="#65731D" />
<rect x="45" y="12" width="1" height="1" fill="#4C5725" />
<rect x="46" y="12" width="1" height="1" fill="#65731D" />
<rect x="47" y="12" width="1" height="1" fill="#829813" />
<rect x="48" y="12" width="1" height="1" fill="#A0BC09" />
<rect x="49" y="12" width="1" height="1" fill="#B9DA00" />
<rect x="50" y="12" width="2" height="1" fill="#BBDC00" />
<rect x="52" y="12" width="1" height="1" fill="#ADCD04" />
<rect x="53" y="12" width="1" height="1" fill="#3B422A" />
<rect x="54" y="12" width="5" height="1" fill="#1E1F34" />
<rect x="5" y="13" width="31" height="2" fill="#1E1F34" />
<rect x="36" y="13" width="1" height="1" fill="#30342E" />
<rect x="37" y="13" width="1" height="1" fill="#A4C107" />
<rect x="38" y="13" width="2" height="1" fill="#BBDC00" />
<rect x="40" y="13" width="1" height="1" fill="#94AE0D" />
<rect x="41" y="13" width="1" height="1" fill="#31362E" />
<rect x="42" y="13" width="7" height="1" fill="#1E1F34" />
<rect x="49" y="13" width="1" height="1" fill="#2E322F" />
<rect x="50" y="13" width="1" height="1" fill="#879D11" />
<rect x="51" y="13" width="2" height="1" fill="#BBDC00" />
<rect x="53" y="13" width="1" height="1" fill="#B3D302" />
<rect x="54" y="13" width="1" height="1" fill="#404729" />
<rect x="55" y="13" width="4" height="1" fill="#1E1F34" />
<rect x="36" y="14" width="1" height="1" fill="#9FBA09" />
<rect x="37" y="14" width="1" height="1" fill="#BBDC00" />
<rect x="38" y="14" width="1" height="1" fill="#B7D701" />
<rect x="39" y="14" width="1" height="1" fill="#65731D" />
<rect x="40" y="14" width="6" height="1" fill="#1E1F34" />
<rect x="46" y="14" width="1" height="1" fill="#464F27" />
<rect x="47" y="14" width="1" height="1" fill="#566122" />
<rect x="48" y="14" width="3" height="1" fill="#1E1F34" />
<rect x="51" y="14" width="1" height="1" fill="#465027" />
<rect x="52" y="14" width="1" height="1" fill="#A7C407" />
<rect x="53" y="14" width="1" height="1" fill="#BBDC00" />
<rect x="54" y="14" width="1" height="1" fill="#B1D003" />
<rect x="55" y="14" width="1" height="1" fill="#363C2C" />
<rect x="56" y="14" width="3" height="2" fill="#1E1F34" />
<rect x="5" y="15" width="30" height="1" fill="#1E1F34" />
<rect x="35" y="15" width="1" height="1" fill="#829813" />
<rect x="36" y="15" width="1" height="2" fill="#BBDC00" />
<rect x="37" y="15" width="1" height="1" fill="#B8D901" />
<rect x="38" y="15" width="1" height="1" fill="#3D442A" />
<rect x="39" y="15" width="2" height="1" fill="#1E1F34" />
<rect x="41" y="15" width="1" height="1" fill="#454F27" />
<rect x="42" y="15" width="3" height="1" fill="#1E1F34" />
<rect x="45" y="15" width="1" height="1" fill="#505C23" />
<rect x="46" y="15" width="2" height="2" fill="#BBDC00" />
<rect x="48" y="15" width="1" height="1" fill="#829813" />
<rect x="49" y="15" width="3" height="4" fill="#1E1F34" />
<rect x="52" y="15" width="1" height="1" fill="#262931" />
<rect x="53" y="15" width="1" height="1" fill="#A7C407" />
<rect x="54" y="15" width="1" height="1" fill="#BBDC00" />
<rect x="55" y="15" width="1" height="1" fill="#A9C706" />
<rect x="5" y="16" width="29" height="2" fill="#1E1F34" />
<rect x="34" y="16" width="1" height="1" fill="#444C27" />
<rect x="35" y="16" width="1" height="2" fill="#BBDC00" />
<rect x="37" y="16" width="1" height="1" fill="#6A7A1B" />
<rect x="38" y="16" width="2" height="1" fill="#1E1F34" />
<rect x="40" y="16" width="1" height="1" fill="#98B20C" />
<rect x="41" y="16" width="1" height="3" fill="#BBDC00" />
<rect x="42" y="16" width="1" height="1" fill="#A5C107" />
<rect x="43" y="16" width="2" height="1" fill="#1E1F34" />
<rect x="45" y="16" width="1" height="1" fill="#6C7D1A" />
<rect x="48" y="16" width="1" height="1" fill="#A3C008" />
<rect x="52" y="16" width="1" height="3" fill="#1E1F34" />
<rect x="53" y="16" width="1" height="1" fill="#3A422A" />
<rect x="54" y="16" width="1" height="1" fill="#B8D901" />
<rect x="55" y="16" width="1" height="2" fill="#BBDC00" />
<rect x="56" y="16" width="1" height="1" fill="#6E7E1A" />
<rect x="57" y="16" width="2" height="1" fill="#1E1F34" />
<rect x="34" y="17" width="1" height="1" fill="#A0BC09" />
<rect x="36" y="17" width="1" height="1" fill="#99B30B" />
<rect x="37" y="17" width="2" height="4" fill="#1E1F34" />
<rect x="39" y="17" width="1" height="1" fill="#32372D" />
<rect x="40" y="17" width="1" height="1" fill="#BBDC00" />
<rect x="42" y="17" width="1" height="1" fill="#BBDC00" />
<rect x="43" y="17" width="1" height="1" fill="#444C27" />
<rect x="44" y="17" width="1" height="15" fill="#1E1F34" />
<rect x="45" y="17" width="1" height="1" fill="#32372D" />
<rect x="46" y="17" width="1" height="1" fill="#9EB90A" />
<rect x="47" y="17" width="1" height="1" fill="#B3D302" />
<rect x="48" y="17" width="1" height="1" fill="#5E6C1F" />
<rect x="53" y="17" width="1" height="3" fill="#1E1F34" />
<rect x="54" y="17" width="1" height="1" fill="#606D1E" />
<rect x="56" y="17" width="1" height="1" fill="#B6D602" />
<rect x="57" y="17" width="1" height="1" fill="#262931" />
<rect x="58" y="17" width="1" height="42" fill="#1E1F34" />
<rect x="5" y="18" width="28" height="5" fill="#1E1F34" />
<rect x="33" y="18" width="1" height="1" fill="#464F27" />
<rect x="34" y="18" width="1" height="9" fill="#BBDC00" />
<rect x="35" y="18" width="1" height="1" fill="#B6D602" />
<rect x="36" y="18" width="1" height="1" fill="#34392D" />
<rect x="39" y="18" width="1" height="3" fill="#1E1F34" />
<rect x="40" y="18" width="1" height="1" fill="#8AA011" />
<rect x="42" y="18" width="1" height="1" fill="#95AF0C" />
<rect x="43" y="18" width="1" height="14" fill="#1E1F34" />
<rect x="45" y="18" width="4" height="7" fill="#1E1F34" />
<rect x="54" y="18" width="1" height="5" fill="#1E1F34" />
<rect x="55" y="18" width="1" height="1" fill="#B5D402" />
<rect x="56" y="18" width="1" height="6" fill="#BBDC00" />
<rect x="57" y="18" width="1" height="1" fill="#596620" />
<rect x="33" y="19" width="1" height="1" fill="#6F8119" />
<rect x="35" y="19" width="1" height="1" fill="#8EA60F" />
<rect x="36" y="19" width="1" height="7" fill="#1E1F34" />
<rect x="40" y="19" width="1" height="2" fill="#1E1F34" />
<rect x="41" y="19" width="1" height="1" fill="#30352E" />
<rect x="42" y="19" width="1" height="13" fill="#1E1F34" />
<rect x="49" y="19" width="1" height="6" fill="#1E1F34" />
<rect x="50" y="19" width="1" height="1" fill="#62711E" />
<rect x="51" y="19" width="1" height="1" fill="#A7C307" />
<rect x="52" y="19" width="1" height="1" fill="#839913" />
<rect x="55" y="19" width="1" height="1" fill="#94AD0D" />
<rect x="57" y="19" width="1" height="1" fill="#7F9414" />
<rect x="33" y="20" width="1" height="1" fill="#8BA210" />
<rect x="35" y="20" width="1" height="1" fill="#7B9015" />
<rect x="41" y="20" width="1" height="11" fill="#1E1F34" />
<rect x="50" y="20" width="1" height="1" fill="#B7D701" />
<rect x="51" y="20" width="2" height="2" fill="#BBDC00" />
<rect x="53" y="20" width="1" height="1" fill="#535F22" />
<rect x="55" y="20" width="1" height="1" fill="#758717" />
<rect x="57" y="20" width="1" height="1" fill="#94AE0D" />
<rect x="33" y="21" width="1" height="1" fill="#99B40B" />
<rect x="35" y="21" width="1" height="1" fill="#69781B" />
<rect x="37" y="21" width="1" height="1" fill="#1E1F34" />
<rect x="38" y="21" width="1" height="1" fill="#62721D" />
<rect x="39" y="21" width="1" height="1" fill="#7F9514" />
<rect x="40" y="21" width="1" height="1" fill="#424A28" />
<rect x="50" y="21" width="1" height="1" fill="#9EBB09" />
<rect x="53" y="21" width="1" height="1" fill="#434C28" />
<rect x="55" y="21" width="1" height="1" fill="#64741D" />
<rect x="57" y="21" width="1" height="1" fill="#9BB50B" />
<rect x="33" y="22" width="1" height="1" fill="#A4C107" />
<rect x="35" y="22" width="1" height="1" fill="#5D6B1F" />
<rect x="37" y="22" width="1" height="1" fill="#4C5725" />
<rect x="38" y="22" width="2" height="2" fill="#BBDC00" />
<rect x="40" y="22" width="1" height="1" fill="#A7C407" />
<rect x="50" y="22" width="1" height="1" fill="#31362D" />
<rect x="51" y="22" width="1" height="1" fill="#6A7A1B" />
<rect x="52" y="22" width="1" height="1" fill="#4E5824" />
<rect x="53" y="22" width="1" height="2" fill="#1E1F34" />
<rect x="55" y="22" width="1" height="1" fill="#829713" />
<rect x="57" y="22" width="1" height="1" fill="#7F9314" />
<rect x="5" y="23" width="6" height="1" fill="#1E1F34" />
<rect x="11" y="23" width="1" height="1" fill="#3A422A" />
<rect x="12" y="23" width="1" height="1" fill="#5A6720" />
<rect x="13" y="23" width="1" height="1" fill="#6A7B1B" />
<rect x="14" y="23" width="11" height="1" fill="#6D7D1A" />
<rect x="25" y="23" width="1" height="1" fill="#6A7B1B" />
<rect x="26" y="23" width="1" height="1" fill="#596620" />
<rect x="27" y="23" width="1" height="1" fill="#39402B" />
<rect x="28" y="23" width="5" height="1" fill="#1E1F34" />
<rect x="33" y="23" width="1" height="1" fill="#9AB40B" />
<rect x="35" y="23" width="1" height="1" fill="#768917" />
<rect x="37" y="23" width="1" height="1" fill="#515C23" />
<rect x="40" y="23" width="1" height="1" fill="#AECC04" />
<rect x="50" y="23" width="3" height="2" fill="#1E1F34" />
<rect x="54" y="23" width="1" height="1" fill="#2F332E" />
<rect x="55" y="23" width="1" height="1" fill="#B3D302" />
<rect x="57" y="23" width="1" height="1" fill="#606F1E" />
<rect x="5" y="24" width="5" height="1" fill="#1E1F34" />
<rect x="10" y="24" width="1" height="1" fill="#758717" />
<rect x="11" y="24" width="1" height="1" fill="#BADB00" />
<rect x="12" y="24" width="15" height="1" fill="#BBDC00" />
<rect x="27" y="24" width="1" height="1" fill="#B9DA00" />
<rect x="28" y="24" width="1" height="1" fill="#708319" />
<rect x="29" y="24" width="4" height="1" fill="#1E1F34" />
<rect x="33" y="24" width="1" height="1" fill="#8BA210" />
<rect x="35" y="24" width="1" height="1" fill="#94AD0D" />
<rect x="37" y="24" width="1" height="3" fill="#1E1F34" />
<rect x="38" y="24" width="1" height="1" fill="#718418" />
<rect x="39" y="24" width="1" height="1" fill="#90A80E" />
<rect x="40" y="24" width="1" height="1" fill="#505A24" />
<rect x="53" y="24" width="1" height="1" fill="#262931" />
<rect x="54" y="24" width="1" height="1" fill="#94AE0D" />
<rect x="55" y="24" width="1" height="2" fill="#BBDC00" />
<rect x="56" y="24" width="1" height="1" fill="#B0CF03" />
<rect x="57" y="24" width="1" height="1" fill="#2B2E30" />
<rect x="5" y="25" width="4" height="1" fill="#1E1F34" />
<rect x="9" y="25" width="1" height="1" fill="#899F11" />
<rect x="10" y="25" width="2" height="1" fill="#BBDC00" />
<rect x="12" y="25" width="1" height="1" fill="#B3D303" />
<rect x="13" y="25" width="1" height="1" fill="#97B10C" />
<rect x="14" y="25" width="11" height="1" fill="#94AE0D" />
<rect x="25" y="25" width="1" height="1" fill="#97B10C" />
<rect x="26" y="25" width="1" height="1" fill="#B3D302" />
<rect x="27" y="25" width="2" height="1" fill="#BBDC00" />
<rect x="29" y="25" width="1" height="1" fill="#849A12" />
<rect x="30" y="25" width="3" height="1" fill="#1E1F34" />
<rect x="33" y="25" width="1" height="1" fill="#6D7D1A" />
<rect x="35" y="25" width="1" height="1" fill="#B1D003" />
<rect x="38" y="25" width="3" height="4" fill="#1E1F34" />
<rect x="45" y="25" width="3" height="1" fill="#1E1F34" />
<rect x="48" y="25" width="1" height="1" fill="#3F4729" />
<rect x="49" y="25" width="2" height="1" fill="#454E27" />
<rect x="51" y="25" width="1" height="1" fill="#4D5825" />
<rect x="52" y="25" width="1" height="1" fill="#68771C" />
<rect x="53" y="25" width="1" height="1" fill="#ABC805" />
<rect x="54" y="25" width="1" height="1" fill="#BBDC00" />
<rect x="56" y="25" width="1" height="1" fill="#556222" />
<rect x="57" y="25" width="1" height="34" fill="#1E1F34" />
<rect x="5" y="26" width="3" height="2" fill="#1E1F34" />
<rect x="8" y="26" width="1" height="1" fill="#65751C" />
<rect x="9" y="26" width="1" height="4" fill="#BBDC00" />
<rect x="10" y="26" width="1" height="1" fill="#B8D901" />
<rect x="11" y="26" width="1" height="1" fill="#525E23" />
<rect x="12" y="26" width="15" height="2" fill="#1E1F34" />
<rect x="27" y="26" width="1" height="1" fill="#576421" />
<rect x="28" y="26" width="1" height="1" fill="#B9D901" />
<rect x="29" y="26" width="1" height="4" fill="#BBDC00" />
<rect x="30" y="26" width="1" height="1" fill="#606D1E" />
<rect x="31" y="26" width="2" height="3" fill="#1E1F34" />
<rect x="33" y="26" width="1" height="1" fill="#3D452A" />
<rect x="35" y="26" width="1" height="3" fill="#BBDC00" />
<rect x="36" y="26" width="1" height="1" fill="#535F22" />
<rect x="45" y="26" width="1" height="1" fill="#1E1F34" />
<rect x="46" y="26" width="1" height="1" fill="#4D5824" />
<rect x="47" y="26" width="1" height="1" fill="#AFCE04" />
<rect x="48" y="26" width="6" height="1" fill="#BBDC00" />
<rect x="54" y="26" width="1" height="1" fill="#BADB00" />
<rect x="55" y="26" width="1" height="1" fill="#6B7D1A" />
<rect x="56" y="26" width="1" height="27" fill="#1E1F34" />
<rect x="8" y="27" width="1" height="1" fill="#9DB80A" />
<rect x="10" y="27" width="1" height="1" fill="#708319" />
<rect x="11" y="27" width="1" height="3" fill="#1E1F34" />
<rect x="27" y="27" width="1" height="2" fill="#1E1F34" />
<rect x="28" y="27" width="1" height="1" fill="#768917" />
<rect x="30" y="27" width="1" height="1" fill="#97B00C" />
<rect x="33" y="27" width="1" height="10" fill="#1E1F34" />
<rect x="34" y="27" width="1" height="1" fill="#9BB60A" />
<rect x="36" y="27" width="1" height="1" fill="#ACC905" />
<rect x="37" y="27" width="1" height="1" fill="#262832" />
<rect x="45" y="27" width="1" height="1" fill="#31372D" />
<rect x="46" y="27" width="1" height="1" fill="#B7D701" />
<rect x="47" y="27" width="4" height="1" fill="#BBDC00" />
<rect x="51" y="27" width="1" height="1" fill="#B6D602" />
<rect x="52" y="27" width="1" height="1" fill="#A7C307" />
<rect x="53" y="27" width="1" height="1" fill="#94AD0D" />
<rect x="54" y="27" width="1" height="1" fill="#404729" />
<rect x="55" y="27" width="1" height="12" fill="#1E1F34" />
<rect x="5" y="28" width="2" height="31" fill="#1E1F34" />
<rect x="7" y="28" width="1" height="1" fill="#262931" />
<rect x="8" y="28" width="1" height="11" fill="#BBDC00" />
<rect x="10" y="28" width="1" height="1" fill="#404729" />
<rect x="12" y="28" width="2" height="1" fill="#1E1F34" />
<rect x="14" y="28" width="1" height="1" fill="#A0BC09" />
<rect x="15" y="28" width="1" height="1" fill="#9FBB09" />
<rect x="16" y="28" width="11" height="1" fill="#1E1F34" />
<rect x="28" y="28" width="1" height="1" fill="#454D27" />
<rect x="30" y="28" width="1" height="11" fill="#BBDC00" />
<rect x="34" y="28" width="1" height="1" fill="#4A5326" />
<rect x="36" y="28" width="1" height="2" fill="#BBDC00" />
<rect x="37" y="28" width="1" height="1" fill="#768917" />
<rect x="45" y="28" width="1" height="1" fill="#5B6820" />
<rect x="46" y="28" width="1" height="2" fill="#BBDC00" />
<rect x="47" y="28" width="1" height="1" fill="#A9C706" />
<rect x="48" y="28" width="1" height="1" fill="#2D322F" />
<rect x="49" y="28" width="6" height="6" fill="#1E1F34" />
<rect x="7" y="29" width="1" height="1" fill="#3A422A" />
<rect x="10" y="29" width="1" height="1" fill="#282C31" />
<rect x="12" y="29" width="1" height="1" fill="#1E1F34" />
<rect x="13" y="29" width="1" height="1" fill="#32372D" />
<rect x="14" y="29" width="2" height="5" fill="#BBDC00" />
<rect x="16" y="29" width="1" height="1" fill="#30352E" />
<rect x="17" y="29" width="8" height="1" fill="#1E1F34" />
<rect x="25" y="29" width="1" height="1" fill="#798C16" />
<rect x="26" y="29" width="1" height="1" fill="#A2BE08" />
<rect x="27" y="29" width="1" height="1" fill="#39402B" />
<rect x="28" y="29" width="1" height="1" fill="#2D312F" />
<rect x="31" y="29" width="1" height="1" fill="#373D2C" />
<rect x="32" y="29" width="1" height="9" fill="#1E1F34" />
<rect x="34" y="29" width="1" height="7" fill="#1E1F34" />
<rect x="35" y="29" width="1" height="1" fill="#819613" />
<rect x="37" y="29" width="1" height="1" fill="#B9DA00" />
<rect x="38" y="29" width="1" height="1" fill="#404729" />
<rect x="39" y="29" width="2" height="1" fill="#1E1F34" />
<rect x="45" y="29" width="1" height="1" fill="#5F6D1F" />
<rect x="47" y="29" width="1" height="1" fill="#ACCA05" />
<rect x="48" y="29" width="1" height="1" fill="#1E1F34" />
<rect x="7" y="30" width="1" height="1" fill="#4D5824" />
<rect x="9" y="30" width="1" height="1" fill="#B5D502" />
<rect x="10" y="30" width="1" height="8" fill="#1E1F34" />
<rect x="11" y="30" width="1" height="1" fill="#2F332E" />
<rect x="12" y="30" width="1" height="1" fill="#8FA80E" />
<rect x="13" y="30" width="1" height="1" fill="#9AB40B" />
<rect x="16" y="30" width="1" height="1" fill="#99B40B" />
<rect x="17" y="30" width="1" height="1" fill="#8FA70E" />
<rect x="18" y="30" width="1" height="1" fill="#2D312F" />
<rect x="19" y="30" width="6" height="1" fill="#1E1F34" />
<rect x="25" y="30" width="1" height="1" fill="#A2BE08" />
<rect x="26" y="30" width="1" height="1" fill="#BBDC00" />
<rect x="27" y="30" width="1" height="1" fill="#556122" />
<rect x="28" y="30" width="1" height="8" fill="#1E1F34" />
<rect x="29" y="30" width="1" height="1" fill="#B8D801" />
<rect x="31" y="30" width="1" height="1" fill="#495226" />
<rect x="35" y="30" width="1" height="5" fill="#1E1F34" />
<rect x="36" y="30" width="1" height="1" fill="#9EBA09" />
<rect x="37" y="30" width="1" height="1" fill="#BBDC00" />
<rect x="38" y="30" width="1" height="1" fill="#B8D901" />
<rect x="39" y="30" width="1" height="1" fill="#66771C" />
<rect x="40" y="30" width="1" height="1" fill="#1E1F34" />
<rect x="45" y="30" width="1" height="1" fill="#262832" />
<rect x="46" y="30" width="1" height="1" fill="#B3D203" />
<rect x="47" y="30" width="1" height="3" fill="#BBDC00" />
<rect x="48" y="30" width="1" height="1" fill="#65751C" />
<rect x="7" y="31" width="1" height="1" fill="#606D1E" />
<rect x="9" y="31" width="1" height="1" fill="#A0BC09" />
<rect x="11" y="31" width="1" height="1" fill="#586521" />
<rect x="12" y="31" width="2" height="1" fill="#BBDC00" />
<rect x="16" y="31" width="2" height="1" fill="#BBDC00" />
<rect x="18" y="31" width="1" height="1" fill="#566321" />
<rect x="19" y="31" width="3" height="1" fill="#1E1F34" />
<rect x="22" y="31" width="1" height="1" fill="#778A16" />
<rect x="23" y="31" width="1" height="1" fill="#65741D" />
<rect x="24" y="31" width="1" height="5" fill="#1E1F34" />
<rect x="25" y="31" width="1" height="1" fill="#383F2B" />
<rect x="26" y="31" width="1" height="1" fill="#545F22" />
<rect x="27" y="31" width="1" height="8" fill="#1E1F34" />
<rect x="29" y="31" width="1" height="1" fill="#A6C307" />
<rect x="31" y="31" width="1" height="1" fill="#5A6820" />
<rect x="36" y="31" width="1" height="1" fill="#30342E" />
<rect x="37" y="31" width="1" height="1" fill="#9EB80A" />
<rect x="38" y="31" width="2" height="1" fill="#BBDC00" />
<rect x="40" y="31" width="1" height="1" fill="#97B10C" />
<rect x="41" y="31" width="1" height="1" fill="#33382D" />
<rect x="45" y="31" width="1" height="1" fill="#A4C008" />
<rect x="46" y="31" width="1" height="1" fill="#6B7D1A" />
<rect x="48" y="31" width="1" height="1" fill="#9CB70A" />
<rect x="7" y="32" width="1" height="1" fill="#718318" />
<rect x="9" y="32" width="1" height="1" fill="#8EA70F" />
<rect x="11" y="32" width="1" height="7" fill="#1E1F34" />
<rect x="12" y="32" width="1" height="1" fill="#67771C" />
<rect x="13" y="32" width="1" height="1" fill="#758818" />
<rect x="16" y="32" width="1" height="1" fill="#748718" />
<rect x="17" y="32" width="1" height="1" fill="#67771C" />
<rect x="18" y="32" width="3" height="3" fill="#1E1F34" />
<rect x="21" y="32" width="1" height="1" fill="#465027" />
<rect x="22" y="32" width="2" height="1" fill="#BBDC00" />
<rect x="25" y="32" width="2" height="5" fill="#1E1F34" />
<rect x="29" y="32" width="1" height="1" fill="#95AE0C" />
<rect x="31" y="32" width="1" height="1" fill="#6B7D1A" />
<rect x="36" y="32" width="2" height="2" fill="#1E1F34" />
<rect x="38" y="32" width="1" height="1" fill="#7F9414" />
<rect x="39" y="32" width="2" height="1" fill="#BBDC00" />
<rect x="41" y="32" width="1" height="1" fill="#BADB00" />
<rect x="42" y="32" width="1" height="1" fill="#AAC806" />
<rect x="43" y="32" width="1" height="1" fill="#95AE0C" />
<rect x="44" y="32" width="1" height="1" fill="#829713" />
<rect x="45" y="32" width="1" height="1" fill="#6F8019" />
<rect x="46" y="32" width="1" height="1" fill="#97B10C" />
<rect x="48" y="32" width="1" height="1" fill="#889E11" />
<rect x="7" y="33" width="1" height="1" fill="#829713" />
<rect x="9" y="33" width="1" height="1" fill="#7F9314" />
<rect x="12" y="33" width="1" height="5" fill="#1E1F34" />
<rect x="13" y="33" width="1" height="1" fill="#32372D" />
<rect x="16" y="33" width="1" height="1" fill="#30352E" />
<rect x="17" y="33" width="1" height="2" fill="#1E1F34" />
<rect x="21" y="33" width="1" height="2" fill="#1E1F34" />
<rect x="22" y="33" width="1" height="1" fill="#748717" />
<rect x="23" y="33" width="1" height="1" fill="#63721D" />
<rect x="29" y="33" width="1" height="1" fill="#859C12" />
<rect x="31" y="33" width="1" height="1" fill="#7C9015" />
<rect x="38" y="33" width="1" height="20" fill="#1E1F34" />
<rect x="39" y="33" width="1" height="1" fill="#475126" />
<rect x="40" y="33" width="1" height="1" fill="#A3C008" />
<rect x="41" y="33" width="6" height="1" fill="#BBDC00" />
<rect x="47" y="33" width="1" height="1" fill="#BADB00" />
<rect x="48" y="33" width="1" height="1" fill="#4A5525" />
<rect x="7" y="34" width="1" height="1" fill="#91A90E" />
<rect x="9" y="34" width="1" height="1" fill="#708319" />
<rect x="13" y="34" width="1" height="3" fill="#1E1F34" />
<rect x="14" y="34" width="1" height="1" fill="#7E9314" />
<rect x="15" y="34" width="1" height="1" fill="#7E9214" />
<rect x="16" y="34" width="1" height="1" fill="#1E1F34" />
<rect x="22" y="34" width="2" height="1" fill="#1E1F34" />
<rect x="29" y="34" width="1" height="1" fill="#778A16" />
<rect x="31" y="34" width="1" height="1" fill="#8BA210" />
<rect x="36" y="34" width="1" height="1" fill="#2D312F" />
<rect x="37" y="34" width="1" height="1" fill="#1F2034" />
<rect x="39" y="34" width="2" height="10" fill="#1E1F34" />
<rect x="41" y="34" width="1" height="1" fill="#464F27" />
<rect x="42" y="34" width="1" height="1" fill="#788B16" />
<rect x="43" y="34" width="2" height="1" fill="#94AE0D" />
<rect x="45" y="34" width="1" height="1" fill="#94AD0D" />
<rect x="46" y="34" width="1" height="1" fill="#839813" />
<rect x="47" y="34" width="1" height="1" fill="#515D23" />
<rect x="48" y="34" width="1" height="19" fill="#1E1F34" />
<rect x="49" y="34" width="1" height="1" fill="#1F2034" />
<rect x="50" y="34" width="1" height="1" fill="#2D322F" />
<rect x="51" y="34" width="4" height="1" fill="#1E1F34" />
<rect x="7" y="35" width="1" height="1" fill="#9EBA09" />
<rect x="9" y="35" width="1" height="1" fill="#64721D" />
<rect x="14" y="35" width="2" height="1" fill="#1E1F34" />
<rect x="16" y="35" width="1" height="1" fill="#363B2C" />
<rect x="17" y="35" width="5" height="1" fill="#454E27" />
<rect x="22" y="35" width="1" height="1" fill="#343A2D" />
<rect x="23" y="35" width="1" height="1" fill="#1E1F34" />
<rect x="29" y="35" width="1" height="1" fill="#6A7B1B" />
<rect x="31" y="35" width="1" height="1" fill="#99B30B" />
<rect x="35" y="35" width="1" height="1" fill="#4F5B23" />
<rect x="36" y="35" width="1" height="1" fill="#B6D602" />
<rect x="37" y="35" width="1" height="1" fill="#819613" />
<rect x="41" y="35" width="2" height="3" fill="#1E1F34" />
<rect x="43" y="35" width="1" height="1" fill="#2D322F" />
<rect x="44" y="35" width="2" height="1" fill="#BBDC00" />
<rect x="46" y="35" width="1" height="1" fill="#3E4629" />
<rect x="47" y="35" width="1" height="18" fill="#1E1F34" />
<rect x="49" y="35" width="1" height="1" fill="#869C12" />
<rect x="50" y="35" width="1" height="1" fill="#B6D602" />
<rect x="51" y="35" width="1" height="1" fill="#4D5825" />
<rect x="52" y="35" width="3" height="1" fill="#1E1F34" />
<rect x="7" y="36" width="1" height="1" fill="#A6C307" />
<rect x="9" y="36" width="1" height="1" fill="#5A6720" />
<rect x="14" y="36" width="1" height="1" fill="#353B2C" />
<rect x="15" y="36" width="1" height="1" fill="#9EB90A" />
<rect x="16" y="36" width="7" height="2" fill="#BBDC00" />
<rect x="23" y="36" width="1" height="1" fill="#9BB50B" />
<rect x="24" y="36" width="1" height="1" fill="#32372D" />
<rect x="29" y="36" width="1" height="1" fill="#606F1E" />
<rect x="31" y="36" width="1" height="1" fill="#A1BD09" />
<rect x="34" y="36" width="1" height="1" fill="#4F5B23" />
<rect x="35" y="36" width="1" height="1" fill="#B9D901" />
<rect x="36" y="36" width="1" height="1" fill="#BBDC00" />
<rect x="37" y="36" width="1" height="1" fill="#849A12" />
<rect x="43" y="36" width="1" height="1" fill="#606D1E" />
<rect x="44" y="36" width="1" height="3" fill="#BBDC00" />
<rect x="45" y="36" width="1" height="1" fill="#ACC905" />
<rect x="46" y="36" width="1" height="17" fill="#1E1F34" />
<rect x="49" y="36" width="1" height="1" fill="#889E11" />
<rect x="50" y="36" width="1" height="1" fill="#BBDC00" />
<rect x="51" y="36" width="1" height="1" fill="#B8D901" />
<rect x="52" y="36" width="1" height="1" fill="#4D5825" />
<rect x="53" y="36" width="2" height="1" fill="#1E1F34" />
<rect x="7" y="37" width="1" height="1" fill="#99B30B" />
<rect x="9" y="37" width="1" height="1" fill="#718318" />
<rect x="13" y="37" width="1" height="1" fill="#31362E" />
<rect x="14" y="37" width="1" height="1" fill="#ACCA05" />
<rect x="15" y="37" width="1" height="1" fill="#BBDC00" />
<rect x="23" y="37" width="1" height="1" fill="#BBDC00" />
<rect x="24" y="37" width="1" height="1" fill="#A9C606" />
<rect x="25" y="37" width="1" height="1" fill="#2E322F" />
<rect x="26" y="37" width="1" height="1" fill="#1E1F34" />
<rect x="29" y="37" width="1" height="1" fill="#748618" />
<rect x="31" y="37" width="1" height="1" fill="#95AE0C" />
<rect x="33" y="37" width="1" height="1" fill="#4C5725" />
<rect x="34" y="37" width="1" height="1" fill="#B8D801" />
<rect x="35" y="37" width="1" height="1" fill="#BBDC00" />
<rect x="36" y="37" width="1" height="1" fill="#97B10C" />
<rect x="37" y="37" width="1" height="1" fill="#242632" />
<rect x="43" y="37" width="1" height="1" fill="#90A80E" />
<rect x="45" y="37" width="1" height="1" fill="#798D16" />
<rect x="49" y="37" width="1" height="1" fill="#242732" />
<rect x="50" y="37" width="1" height="1" fill="#99B30B" />
<rect x="51" y="37" width="1" height="1" fill="#BBDC00" />
<rect x="52" y="37" width="1" height="1" fill="#B7D801" />
<rect x="53" y="37" width="1" height="1" fill="#4B5425" />
<rect x="54" y="37" width="1" height="1" fill="#1E1F34" />
<rect x="7" y="38" width="1" height="1" fill="#798D16" />
<rect x="9" y="38" width="1" height="1" fill="#A4C107" />
<rect x="10" y="38" width="1" height="1" fill="#2B2E30" />
<rect x="12" y="38" width="1" height="1" fill="#363B2C" />
<rect x="13" y="38" width="1" height="1" fill="#A3C008" />
<rect x="14" y="38" width="1" height="1" fill="#BBDC00" />
<rect x="15" y="38" width="1" height="1" fill="#B5D502" />
<rect x="16" y="38" width="1" height="1" fill="#556222" />
<rect x="17" y="38" width="5" height="15" fill="#1E1F34" />
<rect x="22" y="38" width="1" height="1" fill="#5B6920" />
<rect x="23" y="38" width="1" height="1" fill="#B7D801" />
<rect x="24" y="38" width="1" height="1" fill="#BBDC00" />
<rect x="25" y="38" width="1" height="1" fill="#A1BD09" />
<rect x="26" y="38" width="1" height="1" fill="#343A2D" />
<rect x="28" y="38" width="1" height="1" fill="#2B2E30" />
<rect x="29" y="38" width="1" height="1" fill="#A7C407" />
<rect x="31" y="38" width="1" height="1" fill="#748618" />
<rect x="32" y="38" width="1" height="1" fill="#4C5725" />
<rect x="33" y="38" width="1" height="1" fill="#B8D801" />
<rect x="34" y="38" width="1" height="1" fill="#BBDC00" />
<rect x="35" y="38" width="1" height="1" fill="#97B10C" />
<rect x="36" y="38" width="1" height="1" fill="#242632" />
<rect x="37" y="38" width="1" height="5" fill="#1E1F34" />
<rect x="41" y="38" width="1" height="3" fill="#1E1F34" />
<rect x="42" y="38" width="1" height="1" fill="#262931" />
<rect x="43" y="38" width="1" height="1" fill="#B9D901" />
<rect x="45" y="38" width="1" height="1" fill="#485226" />
<rect x="49" y="38" width="1" height="5" fill="#1E1F34" />
<rect x="50" y="38" width="1" height="1" fill="#262832" />
<rect x="51" y="38" width="1" height="1" fill="#99B30B" />
<rect x="52" y="38" width="1" height="1" fill="#BBDC00" />
<rect x="53" y="38" width="1" height="1" fill="#B7D801" />
<rect x="54" y="38" width="1" height="1" fill="#4B5425" />
<rect x="7" y="39" width="1" height="1" fill="#30342E" />
<rect x="8" y="39" width="1" height="1" fill="#B4D302" />
<rect x="9" y="39" width="2" height="1" fill="#BBDC00" />
<rect x="11" y="39" width="1" height="1" fill="#9FBA09" />
<rect x="12" y="39" width="1" height="1" fill="#B9DA00" />
<rect x="13" y="39" width="1" height="1" fill="#BBDC00" />
<rect x="14" y="39" width="1" height="1" fill="#B5D402" />
<rect x="15" y="39" width="1" height="1" fill="#444D28" />
<rect x="16" y="39" width="1" height="14" fill="#1E1F34" />
<rect x="22" y="39" width="1" height="14" fill="#1E1F34" />
<rect x="23" y="39" width="1" height="1" fill="#465027" />
<rect x="24" y="39" width="1" height="1" fill="#B6D602" />
<rect x="25" y="39" width="1" height="1" fill="#BBDC00" />
<rect x="26" y="39" width="1" height="1" fill="#B8D801" />
<rect x="27" y="39" width="1" height="1" fill="#A0BB09" />
<rect x="28" y="39" width="2" height="1" fill="#BBDC00" />
<rect x="30" y="39" width="1" height="1" fill="#B3D203" />
<rect x="31" y="39" width="1" height="1" fill="#2C302F" />
<rect x="32" y="39" width="1" height="1" fill="#B9D901" />
<rect x="33" y="39" width="1" height="1" fill="#BBDC00" />
<rect x="34" y="39" width="1" height="1" fill="#96AF0C" />
<rect x="35" y="39" width="1" height="1" fill="#242732" />
<rect x="36" y="39" width="1" height="3" fill="#1E1F34" />
<rect x="42" y="39" width="1" height="1" fill="#556222" />
<rect x="43" y="39" width="1" height="3" fill="#BBDC00" />
<rect x="44" y="39" width="1" height="1" fill="#B3D203" />
<rect x="45" y="39" width="1" height="1" fill="#202233" />
<rect x="50" y="39" width="1" height="3" fill="#1E1F34" />
<rect x="51" y="39" width="1" height="1" fill="#262832" />
<rect x="52" y="39" width="1" height="1" fill="#99B30B" />
<rect x="53" y="39" width="1" height="1" fill="#BBDC00" />
<rect x="54" y="39" width="1" height="1" fill="#B8D901" />
<rect x="55" y="39" width="1" height="1" fill="#4A5326" />
<rect x="7" y="40" width="1" height="19" fill="#1E1F34" />
<rect x="8" y="40" width="1" height="1" fill="#485226" />
<rect x="9" y="40" width="1" height="1" fill="#ADCB05" />
<rect x="10" y="40" width="3" height="1" fill="#BBDC00" />
<rect x="13" y="40" width="1" height="1" fill="#97B10C" />
<rect x="14" y="40" width="1" height="1" fill="#343A2D" />
<rect x="15" y="40" width="1" height="13" fill="#1E1F34" />
<rect x="23" y="40" width="1" height="13" fill="#1E1F34" />
<rect x="24" y="40" width="1" height="1" fill="#363C2C" />
<rect x="25" y="40" width="1" height="1" fill="#99B40B" />
<rect x="26" y="40" width="3" height="1" fill="#BBDC00" />
<rect x="29" y="40" width="1" height="1" fill="#ADCB05" />
<rect x="30" y="40" width="1" height="1" fill="#454D27" />
<rect x="31" y="40" width="1" height="1" fill="#9EB90A" />
<rect x="32" y="40" width="1" height="1" fill="#BBDC00" />
<rect x="33" y="40" width="1" height="1" fill="#B7D701" />
<rect x="34" y="40" width="1" height="1" fill="#2B2E30" />
<rect x="35" y="40" width="1" height="1" fill="#1E1F34" />
<rect x="42" y="40" width="1" height="1" fill="#879D11" />
<rect x="44" y="40" width="1" height="1" fill="#839813" />
<rect x="45" y="40" width="1" height="13" fill="#1E1F34" />
<rect x="51" y="40" width="1" height="1" fill="#1E1F34" />
<rect x="52" y="40" width="1" height="1" fill="#2D312F" />
<rect x="53" y="40" width="1" height="1" fill="#AECC04" />
<rect x="54" y="40" width="1" height="1" fill="#BBDC00" />
<rect x="55" y="40" width="1" height="1" fill="#99B30B" />
<rect x="8" y="41" width="1" height="12" fill="#1E1F34" />
<rect x="9" y="41" width="1" height="1" fill="#292D30" />
<rect x="10" y="41" width="1" height="1" fill="#545F22" />
<rect x="11" y="41" width="1" height="1" fill="#65751C" />
<rect x="12" y="41" width="1" height="1" fill="#404729" />
<rect x="13" y="41" width="2" height="12" fill="#1E1F34" />
<rect x="24" y="41" width="2" height="12" fill="#1E1F34" />
<rect x="26" y="41" width="1" height="1" fill="#424A28" />
<rect x="27" y="41" width="1" height="1" fill="#66761C" />
<rect x="28" y="41" width="1" height="1" fill="#535F22" />
<rect x="29" y="41" width="1" height="1" fill="#282C31" />
<rect x="30" y="41" width="1" height="12" fill="#1E1F34" />
<rect x="31" y="41" width="1" height="1" fill="#4D5825" />
<rect x="32" y="41" width="1" height="1" fill="#B9D901" />
<rect x="33" y="41" width="1" height="1" fill="#BBDC00" />
<rect x="34" y="41" width="1" height="1" fill="#94AE0D" />
<rect x="35" y="41" width="1" height="1" fill="#242732" />
<rect x="41" y="41" width="1" height="1" fill="#212333" />
<rect x="42" y="41" width="1" height="1" fill="#B5D502" />
<rect x="44" y="41" width="1" height="1" fill="#525D23" />
<rect x="51" y="41" width="1" height="1" fill="#242632" />
<rect x="52" y="41" width="1" height="1" fill="#97B00C" />
<rect x="53" y="41" width="1" height="1" fill="#BBDC00" />
<rect x="54" y="41" width="1" height="1" fill="#B8D801" />
<rect x="55" y="41" width="1" height="1" fill="#495226" />
<rect x="9" y="42" width="4" height="11" fill="#1E1F34" />
<rect x="26" y="42" width="4" height="11" fill="#1E1F34" />
<rect x="31" y="42" width="1" height="11" fill="#1E1F34" />
<rect x="32" y="42" width="1" height="1" fill="#4E5924" />
<rect x="33" y="42" width="1" height="1" fill="#B8D801" />
<rect x="34" y="42" width="1" height="1" fill="#BBDC00" />
<rect x="35" y="42" width="1" height="1" fill="#96AF0C" />
<rect x="36" y="42" width="1" height="1" fill="#242732" />
<rect x="41" y="42" width="1" height="1" fill="#4B5625" />
<rect x="42" y="42" width="1" height="3" fill="#BBDC00" />
<rect x="43" y="42" width="1" height="1" fill="#B7D801" />
<rect x="44" y="42" width="1" height="1" fill="#242632" />
<rect x="50" y="42" width="1" height="1" fill="#242632" />
<rect x="51" y="42" width="1" height="1" fill="#97B10C" />
<rect x="52" y="42" width="1" height="1" fill="#BBDC00" />
<rect x="53" y="42" width="1" height="1" fill="#B8D901" />
<rect x="54" y="42" width="1" height="1" fill="#495226" />
<rect x="55" y="42" width="1" height="11" fill="#1E1F34" />
<rect x="32" y="43" width="1" height="10" fill="#1E1F34" />
<rect x="33" y="43" width="1" height="1" fill="#4E5924" />
<rect x="34" y="43" width="1" height="1" fill="#B8D801" />
<rect x="35" y="43" width="1" height="1" fill="#BBDC00" />
<rect x="36" y="43" width="1" height="1" fill="#96AF0C" />
<rect x="37" y="43" width="1" height="1" fill="#232532" />
<rect x="41" y="43" width="1" height="1" fill="#7D9115" />
<rect x="43" y="43" width="1" height="1" fill="#8DA40F" />
<rect x="44" y="43" width="1" height="10" fill="#1E1F34" />
<rect x="49" y="43" width="1" height="1" fill="#242632" />
<rect x="50" y="43" width="1" height="1" fill="#97B10C" />
<rect x="51" y="43" width="1" height="1" fill="#BBDC00" />
<rect x="52" y="43" width="1" height="1" fill="#B8D901" />
<rect x="53" y="43" width="1" height="1" fill="#495226" />
<rect x="54" y="43" width="1" height="10" fill="#1E1F34" />
<rect x="33" y="44" width="1" height="9" fill="#1E1F34" />
<rect x="34" y="44" width="1" height="1" fill="#505A24" />
<rect x="35" y="44" width="1" height="1" fill="#B9D901" />
<rect x="36" y="44" width="1" height="1" fill="#BBDC00" />
<rect x="37" y="44" width="1" height="1" fill="#849912" />
<rect x="39" y="44" width="1" height="4" fill="#1E1F34" />
<rect x="40" y="44" width="1" height="1" fill="#1F2034" />
<rect x="41" y="44" width="1" height="1" fill="#AFCE04" />
<rect x="43" y="44" width="1" height="1" fill="#5B6920" />
<rect x="49" y="44" width="1" height="1" fill="#899F11" />
<rect x="50" y="44" width="1" height="1" fill="#BBDC00" />
<rect x="51" y="44" width="1" height="1" fill="#B8D801" />
<rect x="52" y="44" width="1" height="1" fill="#4A5525" />
<rect x="53" y="44" width="1" height="9" fill="#1E1F34" />
<rect x="34" y="45" width="1" height="8" fill="#1E1F34" />
<rect x="35" y="45" width="1" height="1" fill="#505C23" />
<rect x="36" y="45" width="1" height="1" fill="#B7D801" />
<rect x="37" y="45" width="1" height="1" fill="#819613" />
<rect x="40" y="45" width="1" height="1" fill="#424A28" />
<rect x="41" y="45" width="1" height="4" fill="#BBDC00" />
<rect x="42" y="45" width="1" height="1" fill="#BADB00" />
<rect x="43" y="45" width="1" height="1" fill="#2A2D30" />
<rect x="49" y="45" width="1" height="1" fill="#859C12" />
<rect x="50" y="45" width="1" height="1" fill="#B5D502" />
<rect x="51" y="45" width="1" height="1" fill="#4D5825" />
<rect x="52" y="45" width="1" height="8" fill="#1E1F34" />
<rect x="35" y="46" width="1" height="7" fill="#1E1F34" />
<rect x="36" y="46" width="1" height="1" fill="#2D322F" />
<rect x="37" y="46" width="1" height="1" fill="#1F2034" />
<rect x="40" y="46" width="1" height="1" fill="#738518" />
<rect x="42" y="46" width="1" height="1" fill="#97B00C" />
<rect x="43" y="46" width="1" height="7" fill="#1E1F34" />
<rect x="49" y="46" width="1" height="1" fill="#1F2034" />
<rect x="50" y="46" width="1" height="1" fill="#2D322F" />
<rect x="51" y="46" width="1" height="7" fill="#1E1F34" />
<rect x="36" y="47" width="2" height="6" fill="#1E1F34" />
<rect x="40" y="47" width="1" height="1" fill="#A7C407" />
<rect x="42" y="47" width="1" height="1" fill="#65751C" />
<rect x="49" y="47" width="2" height="6" fill="#1E1F34" />
<rect x="39" y="48" width="1" height="1" fill="#383E2B" />
<rect x="40" y="48" width="1" height="2" fill="#BBDC00" />
<rect x="42" y="48" width="1" height="1" fill="#31372D" />
<rect x="39" y="49" width="1" height="1" fill="#5A6720" />
<rect x="41" y="49" width="1" height="1" fill="#9EB90A" />
<rect x="42" y="49" width="1" height="4" fill="#1E1F34" />
<rect x="39" y="50" width="1" height="1" fill="#30352E" />
<rect x="40" y="50" width="1" height="1" fill="#798D16" />
<rect x="41" y="50" width="1" height="1" fill="#3A412B" />
<rect x="39" y="51" width="3" height="2" fill="#1E1F34" />
<rect x="8" y="53" width="49" height="1" fill="#3B422A" />
<rect x="8" y="54" width="49" height="1" fill="#BBDC00" />
<rect x="8" y="55" width="49" height="1" fill="#3B422A" />
<rect x="8" y="56" width="49" height="3" fill="#1E1F34" />
<rect x="4" y="58" width="1" height="3" fill="#2F3147" />
<rect x="59" y="58" width="1" height="3" fill="#2F3147" />
<rect x="5" y="59" width="54" height="2" fill="#2F3147" />
</svg>